<svg width="64" height="64" viewBox="0 0 64 64" fill="none" xmlns="http://www.w3.org/2000/svg">
  <circle cx="32" cy="32" r="24" fill="#161614"/>
  <path d="M32 22c-5.5 0-10 4.6-10 10.2 0 4.5 2.9 8.3 6.9 9.7v4.2c0 0.7 0.6 1.2 1.3 1.2 0.3 0 0.6-0.1 0.8-0.3l2.3-1.9 2.3 1.9c0.6 0.5 1.5 0.4 2-0.2 0.2-0.3 0.3-0.6 0.3-0.9v-3.8c4-1.4 6.9-5.2 6.9-9.7 0-5.6-4.5-10.2-10-10.2zm-6 10.2c0-3.4 2.6-6.2 6-6.2s6 2.8 6 6.2c0 3-2 5.5-4.8 6.1l-0.7 0.2v2.1l-1.5-1.3c-0.5-0.4-1.1-0.4-1.6 0l-1.4 1.2v-2.1l-0.7-0.2c-2.9-0.6-4.8-3.1-4.8-6.1z" fill="#FFFFFF"/>
</svg>
