<svg xmlns="http://www.w3.org/2000/svg" width="24" height="24" viewBox="0 0 24 24" fill="none">
<path fill-rule="evenodd" clip-rule="evenodd" d="M5.11808 13.8171C4.58291 14.1993 3.92575 14.4273 3.21596 14.4273C1.421 14.4273 0 12.9688 0 11.2486C0 9.49091 1.421 8.06982 3.21596 8.06982C3.4367 8.06982 3.65234 8.09131 3.86082 8.13228C4.36545 8.23144 4.95217 7.91904 5.04555 7.41331C5.82297 3.20265 9.5175 0.0202637 14.0494 0.0202637C19.159 0.0202637 23.3106 4.06561 23.3106 9.06907C23.3106 13.1447 20.4349 16.7042 16.5246 17.7835C16.1814 17.8783 15.9487 18.2029 15.9487 18.559C15.9487 21.5035 13.4524 24 10.38 24C7.30764 24 4.87534 21.5035 4.87534 18.559C4.87534 17.1463 5.41159 15.8607 6.29856 14.8943C6.52609 14.6463 6.56642 14.2709 6.38114 13.99C6.11801 13.5911 5.50697 13.5394 5.11808 13.8171ZM12.1467 7.54231C12.1467 6.3999 13.0703 5.47625 14.237 5.47625C15.4036 5.47625 16.3515 6.3999 16.3515 7.54231C16.3515 8.66041 15.4036 9.60836 14.237 9.60836C13.0703 9.60836 12.1467 8.66041 12.1467 7.54231ZM17.5759 7.54231C17.5759 6.3999 18.4995 5.47625 19.6662 5.47625C20.8328 5.47625 21.7807 6.3999 21.7807 7.54231C21.7807 8.66041 20.8328 9.60836 19.6662 9.60836C18.4995 9.60836 17.5759 8.66041 17.5759 7.54231Z" fill="#222222"/>
<path d="M17.9989 21.1593C17.9989 19.5887 19.2687 18.3188 20.8726 18.3188C22.4765 18.3188 23.7797 19.5887 23.7797 21.1593C23.7797 22.6964 22.4765 23.9997 20.8726 23.9997C19.2687 23.9997 17.9989 22.6964 17.9989 21.1593Z" fill="#222222"/>
</svg>